<?xml version="1.0" standalone="no"?>
<!DOCTYPE svg PUBLIC "-//W3C//DTD SVG 20010904//EN"
 "http://www.w3.org/TR/2001/REC-SVG-20010904/DTD/svg10.dtd">
<svg version="1.0" xmlns="http://www.w3.org/2000/svg"
 width="16.000000pt" height="16.000000pt" viewBox="0 0 16.000000 16.000000"
 preserveAspectRatio="xMidYMid meet">
<metadata>
Created by potrace 1.11, written by Peter Selinger 2001-2013
</metadata>
<g transform="translate(0.000000,16.000000) scale(0.004000,-0.004000)"
fill="#000000" stroke="none">
<path d="M224 3992 c7 -11 130 -72 145 -72 6 0 11 -4 11 -10 0 -5 6 -10 14
-10 7 0 66 -25 130 -55 64 -31 122 -53 128 -49 6 4 8 3 4 -4 -3 -6 4 -14 16
-18 13 -3 58 -24 102 -45 43 -22 84 -39 91 -39 7 0 15 -3 17 -8 2 -4 66 -36
143 -70 77 -35 167 -76 200 -92 33 -15 71 -32 85 -39 14 -6 32 -15 40 -19 8
-5 44 -23 80 -39 36 -17 114 -54 173 -82 60 -28 110 -51 112 -51 2 0 61 -27
130 -60 69 -33 131 -60 136 -60 6 0 23 -8 37 -19 15 -10 59 -33 97 -51 66 -30
90 -41 190 -85 22 -10 83 -38 135 -63 93 -45 164 -61 212 -49 43 11 85 61 128
152 23 50 69 145 101 212 33 67 59 124 59 127 0 2 31 69 69 148 37 79 72 154
76 167 4 14 27 62 51 108 24 46 43 85 42 86 -1 1 9 21 21 44 27 53 27 53 -8
53 -31 0 -41 -18 -151 -260 -26 -58 -85 -184 -130 -280 -45 -96 -120 -258
-167 -360 -47 -102 -87 -187 -89 -189 -2 -2 -9 1 -16 6 -7 6 -98 50 -203 98
-104 48 -230 107 -280 130 -49 24 -184 87 -300 140 -115 53 -250 116 -300 140
-103 49 -179 85 -425 197 -96 44 -179 84 -185 88 -5 5 -55 28 -110 53 -88 40
-229 104 -448 206 -47 22 -82 31 -118 31 -28 0 -48 -4 -45 -8z"/>
<path d="M1738 3993 c12 -2 22 -9 22 -14 0 -5 11 -9 23 -9 13 0 27 -3 30 -7 4
-3 28 -14 54 -24 27 -9 65 -24 86 -33 20 -9 37 -12 37 -7 0 4 -21 16 -47 25
-27 10 -57 21 -68 26 -87 35 -130 50 -144 49 -9 -1 -6 -4 7 -6z"/>
<path d="M2510 3918 c-17 -46 -36 -93 -41 -105 -5 -13 -7 -23 -4 -23 6 0 38
61 41 79 2 7 12 38 25 67 12 30 19 57 17 60 -3 3 -20 -33 -38 -78z"/>
<path d="M3953 3988 c-6 -7 -29 -49 -53 -93 -24 -44 -46 -84 -50 -90 -4 -5
-29 -50 -55 -100 -26 -49 -71 -130 -100 -180 -29 -49 -71 -126 -95 -170 -119
-222 -163 -302 -213 -387 -30 -51 -76 -133 -102 -183 -27 -49 -57 -106 -68
-125 -11 -19 -30 -54 -42 -77 -12 -23 -26 -48 -32 -55 -6 -7 -27 -44 -48 -83
-21 -38 -58 -105 -82 -149 -23 -43 -43 -80 -43 -81 0 -2 -22 -42 -50 -90 -27
-48 -50 -88 -50 -90 0 -2 -16 -31 -36 -64 l-36 -60 -41 21 c-23 11 -91 49
-152 83 -139 79 -180 101 -340 188 -71 39 -137 76 -145 82 -8 7 -53 32 -100
57 -131 70 -379 206 -440 243 -30 18 -95 54 -145 80 -49 26 -94 51 -100 55 -5
4 -41 24 -80 45 -133 71 -180 98 -190 105 -5 4 -86 49 -180 100 -93 51 -188
103 -210 115 -22 12 -67 37 -100 55 -33 18 -64 36 -70 40 -5 4 -86 49 -180
100 -93 51 -186 102 -205 113 -19 11 -54 31 -77 45 l-43 24 0 -365 0 -366 142
-93 c79 -52 215 -141 303 -197 88 -57 219 -142 291 -190 73 -47 236 -153 363
-236 128 -82 318 -206 424 -275 106 -69 257 -168 337 -219 80 -51 244 -158
365 -237 387 -252 563 -364 571 -364 10 1 96 128 245 360 100 156 228 354 370
570 90 137 201 308 441 681 73 114 137 204 142 201 5 -3 7 263 5 632 -4 579
-5 636 -20 636 -9 0 -21 -6 -26 -12z"/>
<path d="M2000 3895 c0 -6 60 -31 142 -60 90 -31 79 -16 -14 19 -40 15 -81 31
-90 37 -19 10 -38 12 -38 4z"/>
<path d="M2231 3806 c17 -16 119 -49 127 -42 3 3 3 6 0 6 -3 0 -36 11 -73 25
-38 14 -62 19 -54 11z"/>
<path d="M3991 1914 c0 -11 3 -14 6 -6 3 7 2 16 -1 19 -3 4 -6 -2 -5 -13z"/>
<path d="M0 1911 c0 -5 4 -11 9 -13 8 -3 39 -26 137 -105 29 -24 57 -43 62
-43 6 0 12 -3 14 -7 7 -17 58 -56 58 -45 0 6 -46 46 -102 89 -157 119 -178
134 -178 124z"/>
<path d="M290 1694 c0 -5 11 -16 24 -24 32 -20 79 -57 138 -107 27 -24 52 -43
56 -43 4 0 39 -25 77 -54 39 -30 90 -70 114 -88 23 -18 49 -39 56 -45 8 -7 18
-13 22 -13 5 0 22 -13 38 -30 15 -16 32 -27 37 -24 4 3 11 -2 14 -10 3 -9 12
-16 20 -16 7 0 19 -9 27 -20 8 -11 16 -17 19 -14 3 3 15 -7 27 -22 11 -15 21
-24 21 -20 0 4 10 -3 23 -14 12 -12 34 -29 50 -38 15 -9 27 -20 27 -24 0 -4 6
-8 13 -8 16 1 -35 45 -173 147 -117 88 -160 120 -338 255 -56 43 -102 74 -102
71 0 -4 -6 0 -12 9 -7 8 -44 39 -83 68 -38 29 -76 57 -82 63 -7 5 -13 5 -13 1z"/>
<path d="M3871 1510 c-62 -82 -113 -153 -114 -157 -1 -4 -13 -19 -26 -33 -13
-14 -95 -119 -181 -235 -87 -116 -228 -302 -313 -415 -85 -113 -152 -209 -149
-214 3 -5 8 -2 11 7 4 9 20 34 38 54 17 21 60 76 95 123 34 47 73 99 85 115
12 17 37 51 56 77 19 27 37 46 40 43 4 -3 5 -2 3 1 -5 7 5 21 47 66 15 16 27
35 27 42 0 7 12 23 26 37 14 13 32 37 40 52 8 15 19 25 25 21 6 -3 9 2 7 12
-2 12 2 18 10 16 8 -1 11 2 7 8 -3 5 5 21 19 33 14 13 23 27 19 30 -3 4 -1 7
5 7 7 0 12 4 12 10 0 10 12 25 72 93 21 23 38 45 38 50 0 4 8 16 18 26 30 34
42 50 42 57 0 4 11 17 24 29 14 13 23 25 20 27 -2 3 7 15 21 28 14 13 25 29
25 36 0 7 8 19 18 26 17 13 58 78 48 78 -2 0 -54 -67 -115 -150z"/>
<path d="M1110 1064 c0 -10 3 -14 7 -11 3 4 15 0 25 -10 10 -9 18 -11 18 -6 0
6 -11 18 -25 27 -23 15 -25 15 -25 0z"/>
<path d="M3992 1040 c0 -19 2 -27 5 -17 2 9 2 25 0 35 -3 9 -5 1 -5 -18z"/>
<path d="M1 1022 c2 -23 5 -42 8 -42 6 0 23 -14 145 -124 42 -38 90 -79 107
-92 34 -25 156 -132 210 -184 20 -19 53 -48 73 -65 21 -16 43 -35 50 -40 6 -6
38 -33 71 -61 33 -27 72 -61 86 -74 14 -14 54 -50 88 -80 35 -30 69 -61 77
-68 8 -7 14 -12 14 -9 0 4 40 -32 159 -140 40 -37 52 -42 91 -42 l45 0 -44 37
c-72 60 -201 171 -271 233 -36 31 -243 211 -460 400 -217 188 -408 354 -423
368 l-28 26 2 -43z"/>
<path d="M1170 1031 c0 -11 59 -55 65 -49 2 2 -11 16 -30 31 -19 15 -35 23
-35 18z"/>
<path d="M1245 971 c-3 -6 -1 -11 6 -11 6 0 18 -8 25 -17 7 -10 14 -13 14 -7
0 18 -37 47 -45 35z"/>
<path d="M1300 932 c0 -6 10 -17 23 -23 12 -7 24 -15 27 -19 3 -3 32 -26 65
-50 71 -52 80 -59 106 -82 10 -10 19 -14 19 -9 0 6 -17 23 -37 38 -21 15 -40
30 -43 33 -3 3 -34 28 -70 54 -36 27 -71 53 -77 59 -9 6 -13 6 -13 -1z"/>
<path d="M3975 806 c-5 -8 -77 -92 -160 -187 -82 -94 -199 -229 -260 -299 -60
-70 -147 -169 -193 -221 l-83 -94 33 -3 c25 -3 37 2 51 20 16 19 90 102 173
193 12 13 19 26 16 29 -3 3 -1 6 5 6 6 0 39 35 74 78 35 42 98 112 139 155 41
43 77 83 79 89 2 6 11 18 20 27 27 29 65 74 94 113 21 28 28 45 25 73 -2 27
-5 32 -13 21z"/>
<path d="M1565 731 c11 -13 45 -41 75 -61 30 -21 67 -50 82 -64 15 -15 31 -27
35 -27 5 0 30 -20 57 -42 27 -23 87 -69 135 -101 47 -33 111 -79 141 -103 30
-24 65 -51 78 -61 12 -9 33 -26 45 -37 13 -11 30 -24 39 -30 9 -5 44 -29 77
-53 34 -23 61 -39 61 -35 -1 5 -26 26 -57 48 -72 51 -186 137 -193 145 -3 3
-21 17 -40 30 -19 13 -40 29 -46 35 -23 21 -133 97 -136 94 -2 -2 -17 10 -34
26 -32 31 -82 69 -194 152 -36 26 -67 50 -70 53 -3 3 -21 17 -40 30 l-35 24
20 -23z"/>
<path d="M3006 363 c-36 -49 -80 -108 -98 -132 -18 -25 -37 -49 -43 -55 -25
-27 -134 -176 -129 -176 3 0 15 11 26 25 11 14 24 23 29 19 5 -3 8 -2 7 3 -4
16 14 53 23 48 5 -4 9 0 9 8 0 8 10 25 23 38 12 13 43 51 67 84 25 33 49 63
53 66 5 3 7 8 6 10 -2 2 2 13 9 24 6 11 12 16 12 11 0 -4 15 14 33 40 43 63
49 74 43 74 -2 0 -34 -39 -70 -87z"/>
<path d="M3910 85 c-47 -47 -80 -85 -74 -85 13 0 164 148 164 161 0 5 -1 9 -2
9 -2 0 -41 -39 -88 -85z"/>
<path d="M0 144 c0 -13 138 -149 144 -143 3 3 -28 38 -69 79 -41 41 -75 70
-75 64z"/>
<path d="M2412 91 c7 -11 16 -21 20 -21 4 0 22 -13 40 -28 30 -26 68 -47 68
-38 0 2 -24 21 -52 43 -29 21 -61 44 -71 52 -17 12 -18 12 -5 -8z"/>
</g>
</svg>
